<svg xmlns="http://www.w3.org/2000/svg" xmlns:xlink="http://www.w3.org/1999/xlink" width="256" height="256">
  <defs>
    <linearGradient id="b">
      <stop offset="0" stop-color="#0d0d0d"/>
      <stop offset="1" stop-color="#40352e"/>
    </linearGradient>
    <linearGradient id="a">
      <stop offset="0" stop-color="#433b35"/>
      <stop offset="1" stop-color="#1d140c"/>
    </linearGradient>
    <linearGradient xlink:href="#a" id="c" x1="793.86" y1="1197.26" x2="789.46" y2="883.11" gradientUnits="userSpaceOnUse"/>
    <linearGradient xlink:href="#b" id="d" x1="455.74" y1="-153.31" x2="453.76" y2="-248.76" gradientUnits="userSpaceOnUse"/>
    <linearGradient xlink:href="#a" id="e" x1="793.86" y1="1197.26" x2="789.46" y2="883.11" gradientUnits="userSpaceOnUse"/>
    <linearGradient xlink:href="#b" id="f" x1="455.74" y1="-153.31" x2="453.76" y2="-248.76" gradientUnits="userSpaceOnUse"/>
    <linearGradient xlink:href="#a" id="g" x1="793.86" y1="1197.26" x2="789.46" y2="883.11" gradientUnits="userSpaceOnUse"/>
    <linearGradient xlink:href="#b" id="h" x1="455.74" y1="-153.31" x2="453.76" y2="-248.76" gradientUnits="userSpaceOnUse"/>
  </defs>
  <g opacity=".99">
    <path d="M185.46 75.82l25.13-7.28-16.08 147.05z" fill="#7b8971"/>
    <path d="M185.46 75.82l-32.39 4.55 17.43 135.18 2.12 1.42z" fill="#6d806d"/>
    <path d="M185.46 75.82l9.05 139.77-17.85 4.12-4.04-2.74z" fill="#718168"/>
    <path d="M210.6 68.54l4.38 139.16-20.47 7.89z" fill="#7b8a6e"/>
    <path d="M214.98 207.7l15.3-9.57-1.42-138.73-18.27 9.14z" fill="#849073"/>
    <path d="M230.28 198.13l9.26-9.66L228.86 59.4z" fill="#899473"/>
    <path d="M228.86 59.4l10.4-11.38.28 140.45z" fill="#8c9577"/>
    <path d="M239.54 188.47l5.29-11.28-5.58-129.17z" fill="#8e9775"/>
    <path d="M244.83 177.2l-5.58-129.18 1.74-8.55z" fill="#919878"/>
    <path d="M179.65 221.86l-3-2.15-4.03-2.74-2.12-1.42-29.43-19.92 32.1 25.1z" fill="#a29b89"/>
    <path d="M173.17 220.73l-35.43-25.22 3.33.12z" fill="#a89f8a"/>
    <path d="M141.07 195.63l-3.47-12.09.14 11.97z" fill="#aa9f8a"/>
    <path d="M141.07 195.63l-.62-20.29-2.85 8.2" fill="none"/>
    <path d="M150.83 202.24l2.24-121.87 17.43 135.18z" fill="#6c7665"/>
    <path d="M150.83 202.24l-9.76-6.6-.62-20.3-.29-15.97-14.16-6.33-7.86 4.75-1.04 1.75-1.42 15.68-.43 29.88-.06 18.93-18.93-1.32-31.56-6.3-22.8-8.75-11.68-7.05-10.26-8.92-6.04-10.22-1.35-13.95L16.5 36.86l.63 9.91 6.25 8.38 12.5 8.8 14.8 6.17 20.64 5.7 26.73 4.05 25.18 1.42 29.84-.92z" fill="#657b6a"/>
    <path d="M115.68 175.22l4.4 4.12-4.54 5.72z" fill="#898278"/>
    <path d="M120.09 179.34l-4.7 16.61.15-10.9z" fill="#9b9181"/>
    <path d="M115.39 195.95l4.05 6.7.65-23.31" fill="none"/>
    <path d="M119.44 202.65l20.98 1.61-.33.87-24.84.07.14-9.25z" fill="#a39989"/>
    <path d="M140.42 204.26l39.13 28.16-39.46-27.3z" fill="#aba18a"/>
    <path d="M136.4 0L117 .25l-15.65.95-19.17 2.43L69.63 6l-17.61 4.92-13.86 5.58-9.9 5.74-8.4 7.9-3.36 6.73.63 9.91 6.25 8.38 12.5 8.8 14.8 6.17 20.64 5.7 26.73 4.05 25.18 1.42 29.84-.92 32.39-4.55 25.13-7.28 18.27-9.14 10.4-11.38 1.73-8.55-2.28-7.54-7.16-7.86-11.62-7.47-21-7.89-23.63-5.26-18.97-2.28zm-6.1 7.6l20.63 1.16 20.67 3.53 13.51 4.18 6.13 2.39 12.91 8.08 2.55 15.73-15.84 11.78-24.74 6.61-33.7 3.1-36.9-2.42-22.97-5.23-16.64-8.09-5.89-5.91-1.3-8.38 6.44-8.59 4.6-3.21.88-.23 5.68-3.29 6.01-2.34 1.71-.5 10.62-3.31 7.58-1.54 11.88-2.15z" fill="#a0988f"/>
    <path d="M67.52 43.03l-1-15.06-9.6 7.84.13 5.59z" fill="none"/>
    <path d="M67.52 43.03L57.1 44.52l-.05-3.12z" fill="#5f493d"/>
    <path d="M66.51 27.97l-11.35-2.43 1.94 18.98-.19-8.71z" fill="#98836c"/>
    <path d="M66.51 27.97l-5.87-5.87-.88.23-4.6 3.21z" fill="#9c8874"/>
    <path d="M66.51 27.97l-.19-9.16-5.68 3.29z" fill="#97836f"/>
    <path d="M72.33 16.47l-4.81 26.56-1-15.06-.2-9.16z" fill="#927e6b"/>
    <path d="M67.52 43.03l4.81-26.56 1.88-.56z" fill="#8f7c6a"/>
    <path d="M67.52 43.03l14.1-21.73-7.4-5.39z" fill="#907d6b"/>
    <path d="M74.21 15.91l10.45-3.25 8.15 5.8-11.18 2.84z" fill="#8b796a"/>
    <path d="M92.8 18.45l-.53-7.33-7.6 1.54z" fill="#867569"/>
    <path d="M79.75 37.25l1.88-15.95-14.11 21.73z" fill="#8e7459"/>
    <path d="M57.1 44.52l-.2 4.38-1-.48-5.88-5.91-1.3-8.38 6.44-8.59z" fill="#9f8971"/>
    <path d="M56.9 48.9l14 6.8-13.8-11.18z" fill="#a68e72"/>
    <path d="M70.9 55.7l.21-1.23-14-9.95z" fill="#a08f7a"/>
    <path d="M71.11 54.47l11.03-7.46-25.04-2.5z" fill="#a7947d"/>
    <path d="M82.14 47l-14.62-3.97-10.42 1.49z" fill="#a38c71"/>
    <path d="M82.14 47l-2.4-9.75-12.22 5.78z" fill="#a89276"/>
    <path d="M82.14 47l26.16-6.45-28.55-3.3z" fill="#a5927c"/>
    <path d="M108.3 40.55L95 35.68l-15.24 1.57z" fill="#9a8871"/>
    <path d="M92.8 18.45l11.32-9.48-11.85 2.15z" fill="#827268"/>
    <path d="M104.12 8.97L95 35.67l-2.18-17.22z" fill="#837063"/>
    <path d="M108.3 40.55l-2.74-4.92-10.57.05z" fill="#a28f78"/>
    <path d="M104.12 8.97l.73 25.49-9.86 1.22z" fill="#816e5f"/>
    <path d="M71.11 54.47l11.03-7.46 2.13 8.43-4.4 2.74-7.32-1.67-1.65-.8z" fill="#a28a6c"/>
    <path d="M84.27 55.44l22.35-5.33.16-1.38-24.64-1.72z" fill="#91775c"/>
    <path d="M132.42 64.17l5.45-.5 4.37-1.47-.5-5.49-11.44-2.8-12.45 1.84-2.68 7.29z" fill="#a79b8c"/>
    <path d="M137.87 63.67l4.37-1.47.86.99z" fill="#947e65"/>
    <path d="M143.07 63.16l-1.34-6.45.5 5.49z" fill="#a79479"/>
    <path d="M106.78 48.73l1.52-8.18-26.16 6.46z" fill="#917a62"/>
    <path d="M106.62 50.1l.16-1.37 1.52-8.18 3.07 8.38z" fill="#7c6756"/>
    <path d="M108.3 40.55l36.6-.38-33.53 8.76z" fill="#856d55"/>
    <path d="M106.62 50.1l31.99-.48-27.24-.7z" fill="#6f6159"/>
    <path d="M111.37 48.93l27.24.69 6.3-9.45z" fill="#816e5f"/>
    <path d="M144.9 40.17l6.3 9.87 16.91-5.24z" fill="#7e6954"/>
    <path d="M138.6 49.62l12.6.42-6.3-9.87z" fill="#7b6a5d"/>
    <path d="M168.11 44.8l4.91 10.56-21.81-5.32z" fill="#7b695c"/>
    <path d="M168.11 44.8l15.7 7.79-10.79 2.77z" fill="#7d6855"/>
    <path d="M183.82 52.59l1.37 3.37-7.6 2.04-4.57-2.64z" fill="#7a685b"/>
    <path d="M138.6 49.62l22.52 4.54 10.61 5.4L177.6 58l-4.57-2.64-21.81-5.32z" fill="#726a69"/>
    <path d="M171.73 59.56l-10.61-5.4-22.51-4.54-31.99.49-22.35 5.33-4.4 2.74 15.64 3.56 19.66 1.3 2.68-7.3 12.45-1.82 11.43 2.79 1.37 6.48 23.02-2.13z" fill="#a79783"/>
    <path d="M104.12 8.97l13.73 24.41-13 1.08z" fill="#7f6d5f"/>
    <path d="M94.99 35.68l10.57-.05 20.83-.33 24.83 3.15 17.5 4.58 15.35 7.54 3.23 4.83 3.56-.95 7.52-5.6-4.9-4.05-18.45-6.68-24.56-5.17-8.26.49-24.36-.06z" fill="#6b6260"/>
    <path d="M94.99 35.68l9.86-1.22 13-1.08z" fill="#6f625a"/>
    <path d="M130.3 7.6l-12.45 25.78-13.73-24.41z" fill="#7e6d62"/>
    <path d="M150.93 8.76l-8.76 24.68-24.32-.06L130.3 7.61z" fill="#7b6b61"/>
    <path d="M150.93 8.76l-.46 24.19-8.3.49z" fill="#6b5d52"/>
    <path d="M150.93 8.76l12.13 23.54-12.6.65z" fill="#6d5c50"/>
    <path d="M175.03 38.12l-11.97-5.82-12.6.65z" fill="#5e524d"/>
    <path d="M175.03 38.12l-.25-4.53-11.72-1.3z" fill="#574943"/>
    <path d="M174.78 33.6l-.09-6.68-9.91-6.85-1.72 12.23z" fill="#5d4c42"/>
    <path d="M163.06 32.3L159.5 21l-8.57-12.24z" fill="#715c47"/>
    <path d="M163.06 32.3l1.72-12.23-5.28.92z" fill="#533e2b"/>
    <path d="M164.78 20.07l5.23-.88 4.68 7.73z" fill="#5b4430"/>
    <path d="M164.78 20.07l-13.85-11.3 8.57 12.22z" fill="#7a6b62"/>
    <path d="M170.01 19.19L150.93 8.76l13.85 11.3z" fill="#7a6c63"/>
    <path d="M150.93 8.76l19.08 10.43 1.6-6.9z" fill="#7a6c66"/>
    <path d="M171.6 12.3l3.1 14.62L170 19.2zM174.7 26.92l10.41-10.45-13.5-4.18z" fill="#7a6b63"/>
    <path d="M185.11 16.47l-10.08 21.65-.25-4.53-.09-6.67z" fill="#76685e"/>
    <path d="M185.11 16.47l6.13 2.39-16.2 19.26z" fill="#796c65"/>
    <path d="M191.24 18.86l2.23 25.94-18.44-6.68z" fill="#73665e"/>
    <path d="M193.47 44.8l10.68-17.86-12.91-8.08z" fill="#796b63"/>
    <path d="M198.38 48.86l8.32-6.19-2.55-15.73-10.68 17.86z" fill="#756860"/>
    <path d="M137.6 183.54l-.72 1.27-.12 3.02-.13 16.14 1.1-8.46z" fill="#695f53"/>
    <path d="M137.74 195.51l2.68 8.75-3.8-.29z" fill="#746958"/>
    <path d="M140.42 204.26l32.96 22.7-.2-6.23-35.44-25.22z" fill="#756c58"/>
    <path d="M140.42 204.26l32.96 22.7-.08.96z" fill="#524222"/>
    <path d="M173.17 220.73l6.48 1.13-2.8 8.62-3.55-2.56.08-.97z" fill="#757d62"/>
    <path d="M179.65 221.86l-.49 10.28-2.3-1.66z" fill="#74735b"/>
    <path d="M115.25 205.2l4.32 4.36 20.52-4.43z" fill="#607f5b"/>
    <path d="M119.57 209.56l-.12 5.75-4.2-10.1z" fill="#657766"/>
    <path d="M119.57 209.56l21.1 1.9-.58-6.33z" fill="#647e66"/>
    <path d="M140.09 205.13l39.46 27.29-.06 10.2-38.82-31.16z" fill="#667d6a"/>
    <path d="M119.45 215.31h20.83l33.46 29.97-33.52-24.38-20.54.86 8.21 4.3-3.9 29.6-8.83-1.04.03-30.59.06-18.83z" fill="#637d66"/>
    <path d="M173.74 245.28l5.75-2.67-39.21-27.3 33.46 29.97z" fill="#5f7d5b"/>
    <path d="M140.28 215.31l2.95 1.45 24.39 16.32 11.87 9.53z" fill="#68654f"/>
    <path d="M140.28 215.31l-3.15-4.17-2.12-.19-15.56 4.36z" fill="#666f6a"/>
    <path d="M119.45 215.31l.06-3.02 15.5-1.34z" fill="#6b6661"/>
    <path d="M119.51 212.3l.06-2.74 15.44 1.4z" fill="#847663"/>
    <path d="M143.23 216.76l1.63-1.93-4.58.48z" fill="#5a5c40"/>
    <path d="M144.86 214.83l-4.19-3.37-.39 3.85z" fill="#5f765a"/>
    <path d="M140.67 211.46l-3.54-.32 3.15 4.17z" fill="#5f7059"/>
    <path d="M179.5 242.61l-5.76 2.67-1.5 10.53z" fill="#677969"/>
    <path d="M179.5 242.61l-.94 8.31-6.32 4.9z" fill="#60815a"/>
    <path d="M173.04 250.2l-6.41-2.74 5.13 8.54.48-.19z" fill="#677769"/>
    <path d="M166.63 247.46l-6.98-7.27-13.34-9.4-5.23-7.81 32.66 22.3-.7 4.93z" fill="#a69575"/>
    <path d="M173.74 245.28l-33.52-24.38.86 2.08z" fill="#546937"/>
    <path d="M119.68 221.76l16.62 1.22 2-2z" fill="#9e8867"/>
    <path d="M136.3 222.98l3.92-2.08-1.92.08z" fill="#6a5b3d"/>
    <path d="M140.22 220.9l1.55 8.99-.69-6.91z" fill="#536134"/>
    <path d="M141.74 229.52l3.41 2.83 1.16-1.57-5.23-7.8z" fill="#627461"/>
    <path d="M145.15 232.35l3.12 2.24 8.74 21.1.56.09 2.08-15.6-13.34-9.4z" fill="#647c68"/>
    <path d="M157 255.69l-7.63-4.34-1.1-16.76z" fill="#51674e"/>
    <path d="M127.89 226.06l8.41-3.08-16.62-1.22z" fill="#5e7e58"/>
    <path d="M127.89 226.06l4.03 28.08 4.38-31.16z" fill="#637c64"/>
    <path d="M140.22 220.9l.8 34.99-9.1-1.75 4.38-31.16z" fill="#617864"/>
    <path d="M141.77 229.89l-.75 26-.8-34.99z" fill="#60755b"/>
    <path d="M691.14 876.54l-8.82 14.83-12 132.72 37.29 34.86-5.5 197.4 145.54 11.18 2.16-162.25 6.1-10.75 24.1-69.4-2.44-135.25-119.92-53.6z" fill="url(#c)" transform="translate(36.51 54.26) scale(.11811)"/>
    <path d="M56.91 35.81l9.6-7.84 1 15.06-10.46-1.63z" fill="#6b4f35"/>
    <path d="M108.3 40.55l-2.74-4.92 20.83-.33 24.83 3.15 17.5 4.58 15.35 7.54 3.23 4.83-2.1.56-1.38-3.37-15.7-7.79-23.21-4.63z" fill="#a3937f"/>
    <path d="M85.97 20.2l5.12.35.07-1.68z" fill="#4e3721"/>
    <path d="M85.97 20.2l-3.08 16.73-3.14.32 1.88-15.95z" fill="#3c2d24"/>
    <path d="M91.16 18.87l-.07 1.68L95 35.68l-2.18-17.23z" fill="#543a21"/>
    <path d="M91.1 20.55l3.89 15.13-3.35.34z" fill="#453327"/>
    <path d="M85.97 20.2l.06 16.4-3.14.33z" fill="#29211d"/>
    <path d="M86.03 36.6l.64-12.5-.7-3.9z" fill="#2a1c11"/>
    <path d="M85.97 20.2l5.12.35.12 3.31-4.54.24z" fill="#38271a"/>
    <path d="M86.67 24.1l4.59 1.04-.05-1.28z" fill="#271a0f"/>
    <path d="M424.66-255.37l38.84 8.82 3.26 92.1-47.55 4.91z" fill="url(#d)" transform="translate(36.51 54.26) scale(.11811)"/>
    <path d="M140.45 175.34l-2.85 8.2 3.47 12.1z" fill="#a09a7e"/>
    <path d="M120.09 179.34l-.65 23.31-4.05-6.7z" fill="#a19787"/>
    <g opacity=".99">
      <path d="M185.46 75.82l25.13-7.28-16.08 147.05z" fill="#7b8971"/>
      <path d="M185.46 75.82l-32.39 4.55 17.43 135.18 2.12 1.42z" fill="#6d806d"/>
      <path d="M185.46 75.82l9.05 139.77-17.85 4.12-4.04-2.74z" fill="#718168"/>
      <path d="M210.6 68.54l4.38 139.16-20.47 7.89z" fill="#7b8a6e"/>
      <path d="M214.98 207.7l15.3-9.57-1.42-138.73-18.27 9.14z" fill="#849073"/>
      <path d="M230.28 198.13l9.26-9.66L228.86 59.4z" fill="#899473"/>
      <path d="M228.86 59.4l10.4-11.38.28 140.45z" fill="#8c9577"/>
      <path d="M239.54 188.47l5.29-11.28-5.58-129.17z" fill="#8e9775"/>
      <path d="M244.83 177.2l-5.58-129.18 1.74-8.55z" fill="#919878"/>
      <path d="M179.65 221.86l-3-2.15-4.03-2.74-2.12-1.42-29.43-19.92 32.1 25.1z" fill="#a29b89"/>
      <path d="M173.17 220.73l-35.43-25.22 3.33.12z" fill="#a89f8a"/>
      <path d="M141.07 195.63l-3.47-12.09.14 11.97z" fill="#aa9f8a"/>
      <path d="M141.07 195.63l-.62-20.29-2.85 8.2" fill="none"/>
      <path d="M150.83 202.24l2.24-121.87 17.43 135.18z" fill="#6c7665"/>
      <path d="M150.83 202.24l-9.76-6.6-.62-20.3-.29-15.97-14.16-6.33-7.86 4.75-1.04 1.75-1.42 15.68-.43 29.88-.06 18.93-18.93-1.32-31.56-6.3-22.8-8.75-11.68-7.05-10.26-8.92-6.04-10.22-1.35-13.95L16.5 36.86l.63 9.91 6.25 8.38 12.5 8.8 14.8 6.17 20.64 5.7 26.73 4.05 25.18 1.42 29.84-.92z" fill="#657b6a"/>
      <path d="M115.68 175.22l4.4 4.12-4.54 5.72z" fill="#898278"/>
      <path d="M120.09 179.34l-4.7 16.61.15-10.9z" fill="#9b9181"/>
      <path d="M115.39 195.95l4.05 6.7.65-23.31" fill="none"/>
      <path d="M119.44 202.65l20.98 1.61-.33.87-24.84.07.14-9.25z" fill="#a39989"/>
      <path d="M140.42 204.26l39.13 28.16-39.46-27.3z" fill="#aba18a"/>
      <path d="M136.4 0L117 .25l-15.65.95-19.17 2.43L69.63 6l-17.61 4.92-13.86 5.58-9.9 5.74-8.4 7.9-3.36 6.73.63 9.91 6.25 8.38 12.5 8.8 14.8 6.17 20.64 5.7 26.73 4.05 25.18 1.42 29.84-.92 32.4-4.55 25.12-7.28 18.27-9.14 10.4-11.38 1.73-8.55-2.28-7.54-7.16-7.86-11.62-7.47-21-7.89-23.63-5.26-18.97-2.28zm-6.1 7.6l20.63 1.16 20.67 3.53 13.51 4.18 6.13 2.39 12.91 8.08 2.55 15.73-15.84 11.78-24.74 6.61-33.7 3.1-36.9-2.42-22.97-5.23-16.64-8.09-5.89-5.91-1.3-8.38 6.44-8.59 4.6-3.21.88-.23 5.68-3.29 6.01-2.34 1.71-.5 10.62-3.31 7.58-1.54 11.88-2.15z" fill="#a0988f"/>
      <path d="M67.52 43.03l-1-15.06-9.6 7.84.13 5.59z" fill="none"/>
      <path d="M67.52 43.03L57.1 44.52l-.05-3.12z" fill="#5f493d"/>
      <path d="M66.51 27.97l-11.35-2.43 1.94 18.98-.19-8.71z" fill="#98836c"/>
      <path d="M66.51 27.97l-5.87-5.87-.88.23-4.6 3.21z" fill="#9c8874"/>
      <path d="M66.51 27.97l-.19-9.16-5.68 3.29z" fill="#97836f"/>
      <path d="M72.33 16.47l-4.81 26.56-1-15.06-.2-9.16z" fill="#927e6b"/>
      <path d="M67.52 43.03l4.81-26.56 1.88-.56z" fill="#8f7c6a"/>
      <path d="M67.52 43.03l14.1-21.73-7.4-5.39z" fill="#907d6b"/>
      <path d="M74.21 15.91l10.45-3.25 8.15 5.8-11.18 2.84z" fill="#8b796a"/>
      <path d="M92.8 18.45l-.53-7.33-7.6 1.54z" fill="#867569"/>
      <path d="M79.75 37.25l1.88-15.95-14.11 21.73z" fill="#8e7459"/>
      <path d="M57.1 44.52l-.2 4.38-1-.48-5.88-5.91-1.3-8.38 6.44-8.59z" fill="#9f8971"/>
      <path d="M56.9 48.9l14 6.8-13.8-11.18z" fill="#a68e72"/>
      <path d="M70.9 55.7l.21-1.23-14-9.95z" fill="#a08f7a"/>
      <path d="M71.11 54.47l11.03-7.46-25.04-2.5z" fill="#a7947d"/>
      <path d="M82.14 47l-14.62-3.97-10.42 1.49z" fill="#a38c71"/>
      <path d="M82.14 47l-2.4-9.75-12.22 5.78z" fill="#a89276"/>
      <path d="M82.14 47l26.16-6.45-28.55-3.3z" fill="#a5927c"/>
      <path d="M108.3 40.55L95 35.68l-15.24 1.57z" fill="#9a8871"/>
      <path d="M92.8 18.45l11.32-9.48-11.85 2.15z" fill="#827268"/>
      <path d="M104.12 8.97L95 35.67l-2.18-17.22z" fill="#837063"/>
      <path d="M108.3 40.55l-2.74-4.92-10.57.05z" fill="#a28f78"/>
      <path d="M104.12 8.97l.73 25.49-9.86 1.22z" fill="#816e5f"/>
      <path d="M71.11 54.47l11.03-7.46 2.13 8.43-4.4 2.74-7.32-1.67-1.65-.8z" fill="#a28a6c"/>
      <path d="M84.27 55.44l22.35-5.33.16-1.38-24.64-1.72z" fill="#91775c"/>
      <path d="M132.42 64.17l5.45-.5 4.37-1.47-.5-5.49-11.44-2.8-12.45 1.84-2.68 7.29z" fill="#a79b8c"/>
      <path d="M137.87 63.67l4.37-1.47.86.99z" fill="#947e65"/>
      <path d="M143.07 63.16l-1.34-6.45.5 5.49z" fill="#a79479"/>
      <path d="M106.78 48.73l1.52-8.18-26.16 6.46z" fill="#917a62"/>
      <path d="M106.62 50.1l.16-1.37 1.52-8.18 3.07 8.38z" fill="#7c6756"/>
      <path d="M108.3 40.55l36.6-.38-33.53 8.76z" fill="#856d55"/>
      <path d="M106.62 50.1l31.99-.48-27.24-.7z" fill="#6f6159"/>
      <path d="M111.37 48.93l27.24.69 6.3-9.45z" fill="#816e5f"/>
      <path d="M144.9 40.17l6.3 9.87 16.91-5.24z" fill="#7e6954"/>
      <path d="M138.6 49.62l12.6.42-6.3-9.87z" fill="#7b6a5d"/>
      <path d="M168.11 44.8l4.91 10.56-21.81-5.32z" fill="#7b695c"/>
      <path d="M168.11 44.8l15.7 7.79-10.79 2.77z" fill="#7d6855"/>
      <path d="M183.82 52.59l1.37 3.37-7.6 2.04-4.57-2.64z" fill="#7a685b"/>
      <path d="M138.6 49.62l22.52 4.54 10.61 5.4L177.6 58l-4.57-2.64-21.81-5.32z" fill="#726a69"/>
      <path d="M171.73 59.56l-10.61-5.4-22.51-4.54-31.99.49-22.35 5.33-4.4 2.74 15.64 3.56 19.66 1.3 2.68-7.3 12.45-1.82 11.43 2.79 1.37 6.48 23.02-2.13z" fill="#a79783"/>
      <path d="M104.12 8.97l13.73 24.41-13 1.08z" fill="#7f6d5f"/>
      <path d="M94.99 35.68l10.57-.05 20.83-.33 24.83 3.15 17.5 4.58 15.35 7.54 3.23 4.83 3.56-.95 7.52-5.6-4.9-4.05-18.45-6.68-24.56-5.17-8.26.49-24.36-.06z" fill="#6b6260"/>
      <path d="M94.99 35.68l9.86-1.22 13-1.08z" fill="#6f625a"/>
      <path d="M130.3 7.6l-12.45 25.78-13.73-24.41z" fill="#7e6d62"/>
      <path d="M150.93 8.76l-8.76 24.68-24.32-.06L130.3 7.61z" fill="#7b6b61"/>
      <path d="M150.93 8.76l-.46 24.19-8.3.49z" fill="#6b5d52"/>
      <path d="M150.93 8.76l12.13 23.54-12.6.65z" fill="#6d5c50"/>
      <path d="M175.03 38.12l-11.97-5.82-12.6.65z" fill="#5e524d"/>
      <path d="M175.03 38.12l-.25-4.53-11.72-1.3z" fill="#574943"/>
      <path d="M174.78 33.6l-.09-6.68-9.91-6.85-1.72 12.23z" fill="#5d4c42"/>
      <path d="M163.06 32.3L159.5 21l-8.57-12.24z" fill="#715c47"/>
      <path d="M163.06 32.3l1.72-12.23-5.28.92z" fill="#533e2b"/>
      <path d="M164.78 20.07l5.23-.88 4.68 7.73z" fill="#5b4430"/>
      <path d="M164.78 20.07l-13.85-11.3 8.57 12.22z" fill="#7a6b62"/>
      <path d="M170.01 19.19L150.93 8.76l13.85 11.3z" fill="#7a6c63"/>
      <path d="M150.93 8.76l19.08 10.43 1.6-6.9z" fill="#7a6c66"/>
      <path d="M171.6 12.3l3.1 14.62L170 19.2zM174.7 26.92l10.41-10.45-13.5-4.18z" fill="#7a6b63"/>
      <path d="M185.11 16.47l-10.08 21.65-.25-4.53-.09-6.67z" fill="#76685e"/>
      <path d="M185.11 16.47l6.13 2.39-16.2 19.26z" fill="#796c65"/>
      <path d="M191.24 18.86l2.23 25.94-18.44-6.68z" fill="#73665e"/>
      <path d="M193.47 44.8l10.68-17.86-12.91-8.08z" fill="#796b63"/>
      <path d="M198.38 48.86l8.32-6.19-2.55-15.73-10.68 17.86z" fill="#756860"/>
      <path d="M137.6 183.54l-.72 1.27-.12 3.02-.13 16.14 1.1-8.46z" fill="#695f53"/>
      <path d="M137.74 195.51l2.68 8.75-3.8-.29z" fill="#746958"/>
      <path d="M140.42 204.26l32.96 22.7-.2-6.23-35.44-25.22z" fill="#756c58"/>
      <path d="M140.42 204.26l32.96 22.7-.08.96z" fill="#524222"/>
      <path d="M173.17 220.73l6.48 1.13-2.8 8.62-3.55-2.56.08-.97z" fill="#757d62"/>
      <path d="M179.65 221.86l-.49 10.28-2.3-1.66z" fill="#74735b"/>
      <path d="M115.25 205.2l4.32 4.36 20.52-4.43z" fill="#607f5b"/>
      <path d="M119.57 209.56l-.12 5.75-4.2-10.1z" fill="#657766"/>
      <path d="M119.57 209.56l21.1 1.9-.58-6.33z" fill="#647e66"/>
      <path d="M140.09 205.13l39.46 27.29-.06 10.2-38.82-31.16z" fill="#667d6a"/>
      <path d="M119.45 215.31h20.83l33.47 29.97-33.53-24.38-20.54.86 8.21 4.3-3.9 29.6-8.83-1.04.03-30.59.06-18.83z" fill="#637d66"/>
      <path d="M173.75 245.28l5.74-2.67-39.21-27.3 33.47 29.97z" fill="#5f7d5b"/>
      <path d="M140.28 215.31l2.95 1.45 24.39 16.32 11.87 9.53z" fill="#68654f"/>
      <path d="M140.28 215.31l-3.15-4.17-2.12-.19-15.56 4.36z" fill="#666f6a"/>
      <path d="M119.45 215.31l.06-3.02 15.5-1.34z" fill="#6b6661"/>
      <path d="M119.51 212.3l.06-2.74 15.44 1.4z" fill="#847663"/>
      <path d="M143.23 216.76l1.63-1.93-4.58.48z" fill="#5a5c40"/>
      <path d="M144.86 214.83l-4.19-3.37-.39 3.85z" fill="#5f765a"/>
      <path d="M140.67 211.46l-3.54-.32 3.15 4.17z" fill="#5f7059"/>
      <path d="M179.5 242.61l-5.75 2.67-1.5 10.53z" fill="#677969"/>
      <path d="M179.5 242.61l-.94 8.31-6.32 4.9z" fill="#60815a"/>
      <path d="M173.04 250.2l-6.41-2.74 5.13 8.54.48-.19z" fill="#677769"/>
      <path d="M166.63 247.46l-6.98-7.27-13.34-9.4-5.23-7.81 32.67 22.3-.7 4.93z" fill="#a69575"/>
      <path d="M173.75 245.28l-33.53-24.38.86 2.08z" fill="#546937"/>
      <path d="M119.68 221.76l16.62 1.22 2-2z" fill="#9e8867"/>
      <path d="M136.3 222.98l3.92-2.08-1.92.08z" fill="#6a5b3d"/>
      <path d="M140.22 220.9l1.55 8.99-.69-6.91z" fill="#536134"/>
      <path d="M141.74 229.52l3.41 2.83 1.16-1.57-5.23-7.8z" fill="#627461"/>
      <path d="M145.15 232.35l3.12 2.24 8.74 21.1.56.09 2.08-15.6-13.34-9.4z" fill="#647c68"/>
      <path d="M157 255.69l-7.63-4.34-1.1-16.76z" fill="#51674e"/>
      <path d="M127.9 226.06l8.4-3.08-16.62-1.22z" fill="#5e7e58"/>
      <path d="M127.9 226.06l4.02 28.08 4.38-31.16z" fill="#637c64"/>
      <path d="M140.22 220.9l.8 34.99-9.1-1.75 4.38-31.16z" fill="#617864"/>
      <path d="M141.77 229.89l-.75 26-.8-34.99z" fill="#60755b"/>
      <path d="M691.14 876.54l-8.82 14.83-12 132.72 37.29 34.86-5.5 197.4 145.54 11.18 2.16-162.25 6.1-10.75 24.1-69.4-2.44-135.25-119.92-53.6z" fill="url(#e)" transform="translate(36.51 54.26) scale(.11811)"/>
      <path d="M56.91 35.81l9.6-7.84 1 15.06-10.46-1.63z" fill="#6b4f35"/>
      <path d="M108.3 40.55l-2.74-4.92 20.83-.33 24.83 3.15 17.5 4.58 15.35 7.54 3.23 4.83-2.1.56-1.38-3.37-15.7-7.79-23.21-4.63z" fill="#a3937f"/>
      <path d="M85.97 20.2l5.12.35.07-1.68z" fill="#4e3721"/>
      <path d="M85.97 20.2l-3.08 16.73-3.14.32 1.88-15.95z" fill="#3c2d24"/>
      <path d="M91.16 18.87l-.07 1.68L95 35.68l-2.18-17.23z" fill="#543a21"/>
      <path d="M91.1 20.55l3.89 15.13-3.35.34z" fill="#453327"/>
      <path d="M85.97 20.2l.06 16.4-3.14.33z" fill="#29211d"/>
      <path d="M86.03 36.6l.64-12.5-.7-3.9z" fill="#2a1c11"/>
      <path d="M85.97 20.2l5.12.35.12 3.31-4.54.24z" fill="#38271a"/>
      <path d="M86.67 24.1l4.59 1.04-.05-1.28z" fill="#271a0f"/>
      <path d="M424.66-255.37l38.84 8.82 3.26 92.1-47.55 4.91z" fill="url(#f)" transform="translate(36.51 54.26) scale(.11811)"/>
      <path d="M140.45 175.34l-2.85 8.2 3.47 12.1z" fill="#a09a7e"/>
      <path d="M120.09 179.34l-.65 23.31-4.05-6.7z" fill="#a19787"/>
    </g>
    <g opacity=".99">
      <path d="M185.46 75.82l25.13-7.28-16.08 147.05z" fill="#7b8971"/>
      <path d="M185.46 75.82l-32.39 4.55 17.43 135.18 2.12 1.42z" fill="#6d806d"/>
      <path d="M185.46 75.82l9.05 139.77-17.85 4.12-4.04-2.74z" fill="#718168"/>
      <path d="M210.6 68.54l4.38 139.16-20.47 7.89z" fill="#7b8a6e"/>
      <path d="M214.98 207.7l15.3-9.57-1.42-138.73-18.27 9.14z" fill="#849073"/>
      <path d="M230.28 198.13l9.26-9.66L228.86 59.4z" fill="#899473"/>
      <path d="M228.86 59.4l10.4-11.38.28 140.45z" fill="#8c9577"/>
      <path d="M239.54 188.47l5.29-11.28-5.58-129.17z" fill="#8e9775"/>
      <path d="M244.83 177.2l-5.58-129.18 1.74-8.55z" fill="#919878"/>
      <path d="M179.65 221.86l-3-2.15-4.03-2.74-2.12-1.42-29.43-19.92 32.1 25.1z" fill="#a29b89"/>
      <path d="M173.17 220.73l-35.43-25.22 3.33.12z" fill="#a89f8a"/>
      <path d="M141.07 195.63l-3.47-12.09.14 11.97z" fill="#aa9f8a"/>
      <path d="M141.07 195.63l-.62-20.29-2.85 8.2" fill="none"/>
      <path d="M150.83 202.24l2.24-121.87 17.43 135.18z" fill="#6c7665"/>
      <path d="M150.83 202.24l-9.76-6.6-.62-20.3-.29-15.97-14.16-6.33-7.86 4.75-1.04 1.75-1.42 15.68-.43 29.88-.06 18.93-18.93-1.32-31.56-6.3-22.8-8.75-11.68-7.05-10.26-8.92-6.04-10.22-1.35-13.95L16.5 36.86l.63 9.91 6.25 8.38 12.5 8.8 14.8 6.17 20.64 5.7 26.73 4.05 25.18 1.42 29.84-.92z" fill="#657b6a"/>
      <path d="M115.68 175.22l4.4 4.12-4.54 5.72z" fill="#898278"/>
      <path d="M120.09 179.34l-4.7 16.61.15-10.9z" fill="#9b9181"/>
      <path d="M115.39 195.95l4.05 6.7.65-23.31" fill="none"/>
      <path d="M119.44 202.65l20.98 1.61-.33.87-24.84.07.14-9.25z" fill="#a39989"/>
      <path d="M140.42 204.26l39.13 28.16-39.46-27.3z" fill="#aba18a"/>
      <path d="M136.4 0L117 .25l-15.65.95-19.17 2.43L69.63 6l-17.61 4.92-13.86 5.58-9.9 5.74-8.4 7.9-3.36 6.73.63 9.91 6.25 8.38 12.5 8.8 14.8 6.17 20.64 5.7 26.73 4.05 25.18 1.42 29.84-.92 32.39-4.55 25.13-7.28 18.27-9.14 10.4-11.38 1.73-8.55-2.28-7.54-7.16-7.86-11.62-7.47-21-7.89-23.63-5.26-18.97-2.28zm-6.1 7.6l20.63 1.16 20.67 3.53 13.51 4.18 6.13 2.39 12.91 8.08 2.55 15.73-15.84 11.78-24.74 6.61-33.7 3.1-36.9-2.42-22.97-5.23-16.64-8.09-5.89-5.91-1.3-8.38 6.44-8.59 4.6-3.21.88-.23 5.68-3.29 6.01-2.34 1.71-.5 10.62-3.31 7.58-1.54 11.88-2.15z" fill="#a0988f"/>
      <path d="M67.52 43.03l-1-15.06-9.6 7.84.13 5.59z" fill="none"/>
      <path d="M67.52 43.03L57.1 44.52l-.05-3.12z" fill="#5f493d"/>
      <path d="M66.51 27.97l-11.35-2.43 1.94 18.98-.19-8.71z" fill="#98836c"/>
      <path d="M66.51 27.97l-5.87-5.87-.88.23-4.6 3.21z" fill="#9c8874"/>
      <path d="M66.51 27.97l-.19-9.16-5.68 3.29z" fill="#97836f"/>
      <path d="M72.33 16.47l-4.81 26.56-1-15.06-.2-9.16z" fill="#927e6b"/>
      <path d="M67.52 43.03l4.81-26.56 1.88-.56z" fill="#8f7c6a"/>
      <path d="M67.52 43.03l14.1-21.73-7.41-5.39z" fill="#907d6b"/>
      <path d="M74.21 15.91l10.45-3.25 8.15 5.8-11.18 2.84z" fill="#8b796a"/>
      <path d="M92.8 18.45l-.53-7.33-7.6 1.54z" fill="#867569"/>
      <path d="M79.75 37.25l1.88-15.95-14.11 21.73z" fill="#8e7459"/>
      <path d="M57.1 44.52l-.2 4.38-1-.48-5.88-5.91-1.3-8.38 6.44-8.59z" fill="#9f8971"/>
      <path d="M56.9 48.9l14 6.8-13.8-11.18z" fill="#a68e72"/>
      <path d="M70.9 55.7l.21-1.23-14-9.95z" fill="#a08f7a"/>
      <path d="M71.11 54.47l11.03-7.46-25.04-2.5z" fill="#a7947d"/>
      <path d="M82.14 47l-14.62-3.97-10.42 1.49z" fill="#a38c71"/>
      <path d="M82.14 47l-2.4-9.75-12.22 5.78z" fill="#a89276"/>
      <path d="M82.14 47l26.16-6.45-28.55-3.3z" fill="#a5927c"/>
      <path d="M108.3 40.55L95 35.68l-15.24 1.57z" fill="#9a8871"/>
      <path d="M92.8 18.45l11.32-9.48-11.85 2.15z" fill="#827268"/>
      <path d="M104.12 8.97L95 35.67l-2.18-17.22z" fill="#837063"/>
      <path d="M108.3 40.55l-2.74-4.92-10.57.05z" fill="#a28f78"/>
      <path d="M104.12 8.97l.73 25.49-9.86 1.22z" fill="#816e5f"/>
      <path d="M71.11 54.47l11.03-7.46 2.13 8.43-4.4 2.74-7.32-1.67-1.65-.8z" fill="#a28a6c"/>
      <path d="M84.27 55.44l22.35-5.33.16-1.38-24.64-1.72z" fill="#91775c"/>
      <path d="M132.42 64.17l5.45-.5 4.37-1.47-.5-5.49-11.44-2.8-12.45 1.83-2.68 7.3z" fill="#a79b8c"/>
      <path d="M137.87 63.67l4.37-1.47.86.99z" fill="#947e65"/>
      <path d="M143.07 63.16l-1.34-6.45.5 5.49z" fill="#a79479"/>
      <path d="M106.78 48.73l1.52-8.18-26.16 6.46z" fill="#917a62"/>
      <path d="M106.62 50.1l.16-1.37 1.52-8.18 3.07 8.38z" fill="#7c6756"/>
      <path d="M108.3 40.55l36.6-.38-33.53 8.76z" fill="#856d55"/>
      <path d="M106.62 50.1l31.99-.48-27.24-.7z" fill="#6f6159"/>
      <path d="M111.37 48.93l27.24.69 6.3-9.45z" fill="#816e5f"/>
      <path d="M144.9 40.17l6.3 9.87 16.91-5.24z" fill="#7e6954"/>
      <path d="M138.6 49.62l12.6.42-6.3-9.87z" fill="#7b6a5d"/>
      <path d="M168.11 44.8l4.91 10.56-21.81-5.32z" fill="#7b695c"/>
      <path d="M168.11 44.8l15.7 7.79-10.79 2.77z" fill="#7d6855"/>
      <path d="M183.82 52.59l1.37 3.37-7.6 2.04-4.57-2.64z" fill="#7a685b"/>
      <path d="M138.6 49.62l22.52 4.54 10.61 5.4L177.6 58l-4.57-2.64-21.81-5.32z" fill="#726a69"/>
      <path d="M171.73 59.56l-10.61-5.4-22.51-4.54-31.99.49-22.35 5.33-4.4 2.74 15.64 3.56 19.66 1.3 2.68-7.3 12.45-1.82 11.43 2.79 1.37 6.48 23.02-2.13z" fill="#a79783"/>
      <path d="M104.12 8.97l13.73 24.41-13 1.08z" fill="#7f6d5f"/>
      <path d="M94.99 35.68l10.57-.05 20.83-.33 24.83 3.15 17.5 4.58 15.35 7.54 3.23 4.83 3.56-.95 7.52-5.6-4.9-4.05-18.45-6.68-24.56-5.17-8.26.49-24.36-.06z" fill="#6b6260"/>
      <path d="M94.99 35.68l9.86-1.22 13-1.08z" fill="#6f625a"/>
      <path d="M130.3 7.6l-12.45 25.78-13.73-24.41z" fill="#7e6d62"/>
      <path d="M150.93 8.76l-8.76 24.68-24.32-.06L130.3 7.6z" fill="#7b6b61"/>
      <path d="M150.93 8.76l-.46 24.19-8.3.49z" fill="#6b5d52"/>
      <path d="M150.93 8.76l12.13 23.54-12.6.65z" fill="#6d5c50"/>
      <path d="M175.03 38.12l-11.97-5.82-12.6.65z" fill="#5e524d"/>
      <path d="M175.03 38.12l-.25-4.53-11.72-1.3z" fill="#574943"/>
      <path d="M174.78 33.6l-.09-6.68-9.91-6.85-1.72 12.23z" fill="#5d4c42"/>
      <path d="M163.06 32.3L159.5 21l-8.57-12.24z" fill="#715c47"/>
      <path d="M163.06 32.3l1.72-12.23-5.28.92z" fill="#533e2b"/>
      <path d="M164.78 20.07l5.23-.88 4.68 7.73z" fill="#5b4430"/>
      <path d="M164.78 20.07l-13.85-11.3 8.57 12.22z" fill="#7a6b62"/>
      <path d="M170.01 19.19L150.93 8.76l13.85 11.3z" fill="#7a6c63"/>
      <path d="M150.93 8.76l19.08 10.43 1.6-6.9z" fill="#7a6c66"/>
      <path d="M171.6 12.3l3.1 14.62L170 19.2zM174.7 26.92l10.41-10.45-13.5-4.18z" fill="#7a6b63"/>
      <path d="M185.11 16.47l-10.08 21.65-.25-4.53-.09-6.67z" fill="#76685e"/>
      <path d="M185.11 16.47l6.13 2.39-16.2 19.26z" fill="#796c65"/>
      <path d="M191.24 18.86l2.23 25.94-18.44-6.68z" fill="#73665e"/>
      <path d="M193.47 44.8l10.68-17.86-12.91-8.08z" fill="#796b63"/>
      <path d="M198.38 48.86l8.32-6.19-2.55-15.73-10.68 17.86z" fill="#756860"/>
      <path d="M137.6 183.54l-.72 1.27-.12 3.02-.13 16.14 1.1-8.46z" fill="#695f53"/>
      <path d="M137.74 195.51l2.68 8.75-3.8-.29z" fill="#746958"/>
      <path d="M140.42 204.26l32.96 22.7-.2-6.23-35.44-25.22z" fill="#756c58"/>
      <path d="M140.42 204.26l32.96 22.7-.08.96z" fill="#524222"/>
      <path d="M173.17 220.73l6.48 1.13-2.8 8.62-3.55-2.56.08-.97z" fill="#757d62"/>
      <path d="M179.65 221.86l-.49 10.28-2.3-1.66z" fill="#74735b"/>
      <path d="M115.25 205.2l4.32 4.36 20.52-4.43z" fill="#607f5b"/>
      <path d="M119.57 209.56l-.12 5.75-4.2-10.11z" fill="#657766"/>
      <path d="M119.57 209.56l21.1 1.9-.58-6.33z" fill="#647e66"/>
      <path d="M140.09 205.13l39.46 27.29-.06 10.2-38.82-31.16z" fill="#667d6a"/>
      <path d="M119.45 215.31h20.83l33.46 29.97-33.53-24.38-20.53.86 8.21 4.3-3.9 29.6-8.83-1.04.03-30.59.06-18.83z" fill="#637d66"/>
      <path d="M173.74 245.28l5.75-2.67-39.21-27.3 33.46 29.97z" fill="#5f7d5b"/>
      <path d="M140.28 215.31l2.95 1.45 24.39 16.32 11.87 9.53z" fill="#68654f"/>
      <path d="M140.28 215.31l-3.15-4.17-2.12-.19-15.56 4.36z" fill="#666f6a"/>
      <path d="M119.45 215.31l.06-3.02 15.5-1.34z" fill="#6b6661"/>
      <path d="M119.51 212.3l.06-2.74 15.44 1.39z" fill="#847663"/>
      <path d="M143.23 216.76l1.63-1.93-4.58.48z" fill="#5a5c40"/>
      <path d="M144.86 214.83l-4.19-3.37-.39 3.85z" fill="#5f765a"/>
      <path d="M140.67 211.46l-3.54-.32 3.15 4.17z" fill="#5f7059"/>
      <path d="M179.5 242.61l-5.76 2.67-1.5 10.53z" fill="#677969"/>
      <path d="M179.5 242.61l-.94 8.31-6.32 4.9z" fill="#60815a"/>
      <path d="M173.04 250.2l-6.41-2.74 5.13 8.54.48-.19z" fill="#677769"/>
      <path d="M166.63 247.46l-6.98-7.27-13.34-9.4-5.23-7.81 32.66 22.3-.7 4.93z" fill="#a69575"/>
      <path d="M173.74 245.28l-33.53-24.38.87 2.08z" fill="#546937"/>
      <path d="M119.68 221.76l16.62 1.22 2-2z" fill="#9e8867"/>
      <path d="M136.3 222.98l3.91-2.08-1.91.08z" fill="#6a5b3d"/>
      <path d="M140.21 220.9l1.56 8.99-.69-6.91z" fill="#536134"/>
      <path d="M141.74 229.52l3.41 2.83 1.16-1.57-5.23-7.8z" fill="#627461"/>
      <path d="M145.15 232.35l3.12 2.24 8.74 21.1.56.09 2.08-15.6-13.34-9.4z" fill="#647c68"/>
      <path d="M157 255.69l-7.63-4.34-1.1-16.76z" fill="#51674e"/>
      <path d="M127.89 226.06l8.41-3.08-16.62-1.22z" fill="#5e7e58"/>
      <path d="M127.89 226.06l4.03 28.08 4.38-31.16z" fill="#637c64"/>
      <path d="M140.21 220.9l.8 34.99-9.1-1.75 4.4-31.16z" fill="#617864"/>
      <path d="M141.77 229.89l-.75 26-.8-34.99z" fill="#60755b"/>
      <path d="M691.14 876.54l-8.82 14.83-12 132.72 37.29 34.86-5.5 197.4 145.54 11.18 2.16-162.25 6.1-10.75 24.1-69.4-2.44-135.25-119.92-53.6z" fill="url(#g)" transform="translate(36.51 54.26) scale(.11811)"/>
      <path d="M56.91 35.81l9.6-7.84 1 15.06-10.46-1.63z" fill="#6b4f35"/>
      <path d="M108.3 40.55l-2.74-4.92 20.83-.33 24.83 3.15 17.5 4.58 15.35 7.54 3.23 4.83-2.1.56-1.38-3.37-15.7-7.79-23.21-4.63z" fill="#a3937f"/>
      <path d="M85.97 20.2l5.12.34.07-1.67z" fill="#4e3721"/>
      <path d="M85.97 20.2l-3.08 16.73-3.14.32 1.88-15.95z" fill="#3c2d24"/>
      <path d="M91.16 18.87l-.07 1.67L95 35.68l-2.18-17.23z" fill="#543a21"/>
      <path d="M91.1 20.54l3.89 15.14-3.35.34z" fill="#453327"/>
      <path d="M85.97 20.2l.06 16.4-3.14.33z" fill="#29211d"/>
      <path d="M86.03 36.6l.64-12.5-.7-3.9z" fill="#2a1c11"/>
      <path d="M85.97 20.2l5.12.34.12 3.32-4.54.24z" fill="#38271a"/>
      <path d="M86.67 24.1l4.59 1.04-.05-1.28z" fill="#271a0f"/>
      <path d="M424.66-255.37l38.84 8.82 3.26 92.1-47.55 4.91z" fill="url(#h)" transform="translate(36.51 54.26) scale(.11811)"/>
      <path d="M140.45 175.34l-2.85 8.2 3.47 12.1z" fill="#a09a7e"/>
      <path d="M120.09 179.34l-.65 23.31-4.05-6.7z" fill="#a19787"/>
    </g>
  </g>
</svg>
