<svg xmlns="http://www.w3.org/2000/svg" viewBox="0 0 282.3 304.2" height="304.2" width="282.3"><path d="M79.2 276.3H35.5c-24.6 0-25.4-21.5-25.5-24V34c0-23 23-24 25.5-24h202.7c24.6 0 25.5 21.6 25.5 24v162.3c0 2.8 2.3 5 5 5 2.8 0 5-2.2 5-5V34c0-11.7-7.4-34-35.5-34H35.5C23.2 0 0 7 0 34v218.4c0 11.7 7.4 34 35.5 34h43.7c2.8 0 5-2.3 5-5 0-2.8-2.2-5-5-5" fill="#a21f7b"/><path d="M214.6 268.6c-.4 2-1 4.2-1.7 6.2-1.3-.5-2.3-1.2-3-2.2-.8-1-1.5-2-2-3.3-.4-1.2-.6-2.4-.7-3.7 0-1.2 0-2.4.2-3.6.3-1 .7-2 1.2-2.8.6-1 1.3-1.4 2.2-1.7 1-.3 2 0 2.7 1 .7 1 1 2.5 1.2 4.2 0 1.8 0 3.7-.4 6zm-6 13c-1.2 1-2.3 1.5-3.5 1.7-1.3.3-2.4 0-3-1.2-.8-1-1.3-2.3-1.4-4v-2.7c0-.3.2-.5.3-.7 0-1 .2-1.6 0-2.2v-.4c.6-2 1.3-4.2 2.2-6.2.2 2.6 1 5 2.3 7.3 1.4 2.4 3.3 4 5.8 5.2-1 1.4-1.8 2.5-2.8 3.4zm-23.5-2.8c0 1.5-.2 3-.6 4.2-.4 1.2-1 2.3-1.8 3-1 1-1.8 1.5-3 1.7-.6.2-1.2 0-1.7-.6-.7-.4-1-1-1-1.7 0-.8 0-1.5.4-2 .3-.8 1-1.2 2-1.4 1-.3 1.8-.8 2-1.5.3-.8.2-1.6 0-2.5-.5-.8-1-1.6-1.8-2.3-.8-.7-1.7-1-2.7-1 .2-1 .6-2.2 1-3.2.3-1 .6-2 1-2.7.3-1 .6-2 1-2.8 1.2 1 2.2 2.3 3 3.7.8 1.5 1.3 3 1.7 4.5.4 1.5.5 3 .4 4.6zm-28.6-3.6c.7-1.6 1.4-3 2.3-4.4.8-1.4 1.7-2.5 2.6-3.3 1-1 1.7-1.4 2.6-1.6 1-.3 1.6 0 2 1 .4 1 .5 2 .2 3.4s-1 2.8-1.8 4.2c-1 1.5-2 2.7-3.6 3.6-1 .7-2.3 1-3.3 1.4-1 .3-2 .4-3 .5.6-1.6 1.2-3.2 2-4.8zm125.8-45.8c0-.5-.3-1-.7-1.2-.4-.2-1 0-1.5.2-2 1.2-4 2.2-5.7 3-1.8 1-3.7 1.7-5.5 2.4l1-2.8c.3-.7.4-1.3.4-1.6 0-.8 0-1.6-.5-2.5-.4-1-1-1.7-1.6-2.4-.6-.7-1.3-1.4-2.2-2-.8-.4-1.6-.8-2.4-1-.8-.2-1.5-.2-2 0-.7.3-1 .8-1.4 1.6 0 .4-.3 1-.7 2l-1 3.5-1.5 4.6-1.6 5.5-4.8 2c-1.5 1-3 1.8-4.4 3-.7.3-1.2.8-1.4 1.3-.3.6-.3 1-.2 1.3.2.3.5.4 1 .5.5 0 1.2 0 2-.4l3-1c1-.4 2.2-.7 3.4-1-.6 2.6-1.3 5.3-1.8 8-.6 3-1 5.6-1.3 8.2l-.3 4c-.3 1-.5 2-1 3-.3 1.4-.8 2.6-1.5 3.8-.7 1.2-1.4 2.3-2.2 3.2-.7 1-1.6 1.5-2.6 1.7-.6.2-1 0-1-.5s0-1.2.2-2.2l1-3.3 1.4-3.7c.5-1.3 1-2.5 1.3-3.7.5-1.3.7-2.3.8-3 0-.7 0-1.3-.2-1.8l-1-1.5c-.4-.5-1-.8-1.4-1-.6-.4-1-.7-1.7-.8-1.4-.8-2.6-1.3-3.5-1.7-1-.4-1.7-.8-2.3-1.2-.5-.3-1-.8-1-1.4-.2-.6 0-1.3.2-2.3.2-1 0-1.6-.2-2.2-.3-.4-.8-.7-1.4-.8-.5 0-1 0-1.7.6-.5.4-1 1.2-1 2.2-.3 1.5-.3 2.7 0 3.6l-.3 1.3-.6 2.6-1 3.5-.8 3.7-.8 3.3-.7 2.3c-.5 1.5-1 2.7-2 3.7-.7 1-2 2-3.5 2.5 1-1.8 1.7-3.6 2.2-5.5.5-1.8.7-3.6.7-5.3 0-1.7-.3-3.3-.7-4.8-.5-1.6-1.3-2.8-2.3-3.8-1-1-2.4-1.7-4-2-1.6-.4-3.6-.4-6 0h-1c-.2.2-.6.3-1 .4-1.4.5-2.4 1-3.3 1.8-2 1.7-3.8 3.6-5.3 6-1.5 2.3-2.6 4.7-3.4 7.2-.6 2-1 3.7-1.2 5.6l-1.8 4.6c-.8 1.5-1.6 2.7-2.6 3.8 1-2.3 1.3-4.8 1-7.6 0-2.7-.8-5.4-2.3-8-.3-1-.7-1.6-1-2.4-.6-.7-1-1.4-1.3-2l-.7-1.7c0-.6-.2-1 0-1.4.2-.7 0-1.5-.6-2.4-.6-1-1.4-1.8-2.3-2.5-.8-.6-1.7-1-2.6-1-1 0-1.6.5-2 1.6l-2 5.3-2.4 5.7-2.3 6-1.8 5c-.2.3-.3.5-.3 1l-1.3 3.4c-.6 1.4-1.5 2.8-2.6 4.2-1 1.3-2.5 2.5-4 3.6-1.8 1-3.7 2-6 2.2-1 .2-1.8 0-2.4-.2-.7-.4-1-1-1.5-1.7-.4-.8-.6-1.7-.6-2.8 0-1 0-2.2.3-3.4 1 0 2.4 0 4-.4 1.4-.3 3-1 5-2 1.6-1 3-2 4-3.4 1.2-1.4 2-3 2.8-4.4.7-1.6 1-3.2 1.2-4.7.2-1.7 0-3-.7-4.2-.5-1.2-1.5-2-3-2.6-1.2-.6-3-.7-5.4-.3-3.6.6-6.5 2-9 4-2.3 2-4.2 4.4-5.5 7-1 2.8-1.8 5.6-2 8.5v1.6c-.2 1.2-.6 2.4-1.2 3.8-.7 1.5-1.4 3-2.3 4.2l-2.8 3.3c-1 1-2 1.5-2.7 1.5-.6 0-1-.2-1-1 0-.7.2-1.7.6-3l1.7-4 2-4.4 2-4.2.8-3c.2-.7 0-1.2-.4-1.7l-1.7-1.2-2.3-.8-2.3-.2c2.5-1.7 4.6-3.7 6.2-5.8 1.6-2 2.8-4 3.5-6.2.8-2 1-4 .6-5.8-.3-2-1.2-3.4-2.6-4.7-1.5-1.2-3.5-2-6-2.5-2.7-.5-6-.4-10 .3-3.7.7-7 1.7-9.8 3.2-3 1.5-5.3 3.2-7.2 5-2 2-3.6 4-4.8 6-1.2 2.2-2 4-2.7 6-.5 1.8-.8 3.4-.8 5 0 1.3.3 2.3.8 2.8.5.6 1.3.8 2.3.6 1-.2 2-.6 3-1.3 1-.7 1.8-1.5 2.4-2.4.5-1 .6-1.8 0-2.7-.6-1.2-1-2.7-.6-4.6.2-2 1-3.7 2.3-5.7 1.2-2 3-3.6 5.3-5.2s5.2-2.7 8.7-3.4c2.3-.3 4.2 0 5.6.5 1.5.7 2.5 1.7 3 3 .7 1.3 1 3 .8 4.7 0 1.8-.5 3.7-1.3 5.6-.6 2-1.7 3.8-3 5.6-1.3 1.8-2.8 3.4-4.4 4.7-1 .4-1.6.8-2.4 1.3l-2 1.3 1.6-4 1.4-3.4 1-2.7.5-1.8c0-.8-.2-1.6-.6-2.4-.4-.8-1-1.5-2-2.2-.7-.6-1.6-1.2-2.5-1.7-1-.5-2-.8-2.8-1-1-.2-1.7-.2-2.4 0-.7.3-1 .8-1.3 1.6 0 .5-.4 1.6-.8 3.2-.4 1.5-1 3.4-1.4 5.6L111 276l-1.4 8.4c-.4 3-.8 5.7-1 8.5-.3 2.8-.4 5.5-.3 8 0 1 .3 1.8.8 2.3.6.5 1 .8 1.7 1 .6 0 1.2-.2 1.7-.6.5-.4.7-1 .8-1.8 0-1 .2-2 .6-3.5l1.7-5 2.2-5.7c1-2 1.8-4 2.6-6 .8-.7 1.6-1.3 2.6-1.8s1.8-.8 2.8-1c1-.3 2-.4 3-.5.8 0 1.6 0 2.2.2.4 0 .6.5.6 1.2s0 1.6-.2 2.7l-.6 3.6-.7 4v4c0 1.2.2 2.3.6 3.2.5 1 1 1.6 2 2 1 .5 2 .5 3.7.3 1.8-.3 3.4-1 4.8-2.4 1.6-1.3 2.8-2.8 4-4.4.6-1 1-2 1.7-3 1 2 2.3 3.6 4.2 4.7 2 1.2 4.6 1.6 7.8 1 2.7-.4 5-1.4 7-2.7 2-1.4 3.8-3 5-4.6.7-.6 1-1.3 1.6-2l1 1.7c.8 1.4 2 2.4 3.4 3.2 1.4.7 3 1 4.8.6h.4c2.3-.4 4.6-1 6.6-2 2-1.2 4-2.6 5.5-4.2 1.3-1 2.4-2.4 3.3-3.7v.2c.7 2 1.6 3.3 3 4.3 1.2 1 3 1.5 5 1.2 2.8-.3 5.4-1.2 7.7-2.8 2.4-1.7 4.5-3.6 6.2-6 2 0 3.7-.6 5-1.4 1.5-.8 2.7-1.7 3.7-2.7 1-1 1.7-2 2.3-3.2.5-.8.8-1.6 1-2.3v-.2l.2-.5v-.3l.6-2 1-4 .8-4 .8-3.2 2 1.5c.5.5.8 1.3.7 2.5l-.7 4.2c-.3 1.6-.5 3.3-.6 5v5c.2 1.5.5 3 1 4 .6 1.3 1.3 2.3 2.2 3 1 .5 2.2.7 3.8.5 1.8-.4 3.3-1 4.7-2.4 1.3-1.3 2.4-2.7 3.3-4.3l.2-.4c.5 1.4 1.3 2.5 2.3 3.3 1 1 2.5 1.2 4.3 1 1.8 0 3.3-1 4.7-2 1.3-1.3 2.4-2.8 3.3-4.4 1-1.8 1.7-3.4 2.2-5 .6-2 1-3.3 1-4.4.4-1 .4-2 0-2.6-.2-.6-.6-1-1-1-.6 0-1 0-1.6.5-.5.4-1 1-1.2 2.2l-1 3.5-1.4 4c-.6 1.3-1.3 2.3-2 3.2-1 1-1.8 1.3-2.8 1.3-.8 0-1.3-.5-1.5-1.5-.2-1 0-2.3.2-4l1.4-6 2.5-6.8 2.8-7.4 2.8-7 4.5-1 4-1 3-1c.8 0 1.4-.3 1.7-.5.5-.2 1-.7 1.5-1.3.4-.7.8-1.4 1-2.2.3-.8.5-1.6.6-2.5v-2" fill="#a21f7b"/><path d="M56.7 219.8c0 2-1.6 3.8-3.7 3.8-2 0-3.8-1.7-3.8-3.8 0-2 1.7-3.7 3.8-3.7 2 0 3.7 1.8 3.7 3.8zM56.3 73c0 2.2-1.7 4-3.8 4-2 0-3.7-1.8-3.7-4 0-2 1.7-3.6 3.7-3.6s3.8 1.6 3.8 3.7zm-7.6 13.4c0-2 1.7-3.7 3.7-3.7s3.8 1.7 3.8 3.7-1.7 3.8-3.8 3.8c-2 0-3.7-1.7-3.7-3.8zm-.2 13.3c0-2 1.7-3.7 3.7-3.7s3.8 1.7 3.8 3.7-1.7 3.8-3.8 3.8c-2 0-3.7-1.7-3.7-3.8zM48 113c0-2 1.6-3.7 3.7-3.7 2 0 3.7 1.7 3.7 3.7s-1.7 3.8-3.7 3.8S48 115 48 113zm0 13.3c0-2 1.6-3.7 3.7-3.7 2 0 3.7 1.7 3.7 3.7s-1.7 3.8-3.7 3.8-3.8-1.6-3.8-3.7zm0 13.3c0-2 1.6-3.7 3.7-3.7 2 0 3.7 1.6 3.7 3.6s-1.7 3.8-3.7 3.8-3.8-1.7-3.8-3.8zm0 13.3c0-2 1.6-3.8 3.7-3.8 2 0 3.7 1.7 3.7 3.7s-1.7 3.7-3.7 3.7S48 155 48 153zm0 13.2c0-2 1.6-3.7 3.7-3.7 2 0 3.7 1.7 3.7 3.7s-1.7 3.8-3.7 3.8-3.8-1.7-3.8-3.8zm0 13.4c0-2 1.6-3.8 3.7-3.8 2 0 3.7 1.7 3.7 3.8 0 2-1.7 3.7-3.7 3.7s-3.8-1.7-3.8-3.7zm0 13.3c0-2.2 1.6-4 3.7-4 2 0 3.7 1.8 3.7 4 0 2-1.7 3.6-3.7 3.6S48 195 48 193zm0 13.6c0-2 1.6-3.7 3.7-3.7 2 0 3.7 1.6 3.7 3.6s-1.7 3.8-3.7 3.8-3.8-1.7-3.8-3.8zm12.6-101.2h8.2v-18h-8.2v-27L45 66.8v20.6h-9v18h7.5v86.8c0 16.8 1.5 27 3.8 36.5h15C61 218 60.6 207 60.6 192.2v-86.8zM109.2 219c-2 0-3.7-1.6-3.7-3.7 0-2 1.6-3.7 3.7-3.7 2 0 3.7 1.7 3.7 3.7s-1.7 3.8-3.8 3.8zm4-12c-2.2 0-4-1.7-4-3.8 0-2 1.8-3.7 4-3.7 2 0 3.6 1.7 3.6 3.7S115 207 113 207zm3.7-18c0 2.2-1.7 4-3.8 4-2 0-3.7-1.8-3.7-4 0-2 1.6-3.6 3.7-3.6 2 0 3.7 1.6 3.7 3.7zm-14.2 32c0 2.2-1.7 4-3.8 4-2 0-3.7-1.8-3.7-4 0-2 1.7-3.6 3.7-3.6s3.8 1.7 3.8 3.7zm-9.6-74v-32.2c0-5.6 2-9.7 6.5-9.7 4.7 0 6 4.2 6 9.8v32H93zm2 7.4c0-2 1.8-3.7 3.8-3.7 2 0 3.8 1.6 3.8 3.7 0 2-1.7 3.7-3.8 3.7-2 0-3.7-1.5-3.7-3.6zm11-53.7c-2 0-3.6-1.6-3.6-3.7 0-2 1.6-3.7 3.7-3.7 2 0 3.7 1.6 3.7 3.7 0 2-1.6 3.7-3.7 3.7zm2.6 9c0-2 1.7-3.8 3.8-3.8 2 0 3.7 1.6 3.7 3.6s-1.7 3.8-3.7 3.8-3.8-1.7-3.8-3.8zm0 13.2c0-2 1.7-3.8 3.8-3.8 2 0 3.7 1.7 3.7 3.7s-1.7 3.7-3.7 3.7-3.8-1.7-3.8-3.8zm0 13.2c0-2 1.7-3.7 3.8-3.7 2 0 3.7 1.7 3.7 3.7s-1.7 3.8-3.7 3.8-3.8-1.7-3.8-3.8zm0 13.3c0-2 1.7-3.7 3.8-3.7 2 0 3.7 1.7 3.7 3.7s-1.7 3.8-3.7 3.8-3.8-1.7-3.8-3.8zM95.5 98.3c0 2-1.6 3.8-3.7 3.8-2 0-3.8-1.6-3.8-3.7 0-2 1.7-3.7 3.8-3.7 2 0 3.7 1.6 3.7 3.7zm-6.7 11.3c0 2-1.7 3.8-3.8 3.8-2 0-3.7-1.7-3.7-3.8 0-2 1.7-3.7 3.7-3.7s3.8 1.6 3.8 3.6zM81.3 123c0-2 1.7-3.8 3.7-3.8s3.8 1.7 3.8 3.7-1.7 3.7-3.8 3.7c-2 0-3.7-1.7-3.7-3.8zm0 13.2c0-2 1.7-3.7 3.7-3.7s3.8 1.7 3.8 3.7S87 140 85 140c-2 0-3.7-1.7-3.7-3.8zm0 13.3c0-2 1.7-3.7 3.7-3.7s3.8 1.7 3.8 3.7-1.7 3.8-3.8 3.8c-2 0-3.7-1.7-3.7-3.8zm0 13.3c0-2 1.7-3.7 3.7-3.7s3.8 1.8 3.8 3.8c0 2-1.7 3.8-3.8 3.8-2 0-3.7-1.7-3.7-3.8zm0 13.4c0-2 1.7-3.8 3.7-3.8s3.8 1.7 3.8 3.8c0 2-1.7 3.7-3.8 3.7-2 0-3.7-1.8-3.7-3.8zm0 13.3c0-2 1.7-3.8 3.7-3.8s3.8 1.7 3.8 3.8c0 2-1.7 3.7-3.8 3.7-2 0-3.7-1.7-3.7-3.7zm0 13.3c0-2 1.7-3.8 3.7-3.8s3.8 1.7 3.8 3.8c0 2-1.7 3.7-3.8 3.7-2 0-3.7-1.7-3.7-3.7zm3.8 12.5c0-2 1.8-3.7 4-3.7 2 0 3.6 1.7 3.6 3.7S91 219 89 219c-2.2 0-4-1.6-4-3.7zm35.3-15v-22h-14.7v24.2c0 5.3-1.2 9.4-6 9.4-4.3 0-6.4-4.2-6.4-9.5v-39.7h27v-46c0-18.5-8.4-31-21-31-12.4 0-22.7 12.5-22.7 31v83.4c0 18.5 10.3 31 22.6 31 12.8 0 21.3-12.5 21.3-31zm44.5 18.3c-2 0-3.7-1.7-3.7-3.7 0-2.2 1.7-4 3.8-4 2 0 3.7 1.8 3.7 4 0 2-1.6 3.6-3.7 3.6zm3.4-13c-2 0-3.8-1.6-3.8-3.7 0-2 1.7-3.8 3.8-3.8 2 0 3.7 1.7 3.7 3.7s-1.7 3.7-3.8 3.7zm4-17.8c0 2-1.8 3.7-4 3.7-2 0-3.6-1.6-3.6-3.7 0-2 1.7-3.7 3.7-3.7s3.8 1.7 3.8 3.8zM157.8 221c0 2.2-1.8 4-3.8 4-2 0-3.8-1.8-3.8-4 0-2 1.7-3.6 3.8-3.6 2 0 3.7 1.7 3.7 3.7zm-11-120.3c-2.2 0-3.8-1.6-3.8-3.7 0-2 1.6-3.7 3.7-3.7 2 0 3.7 1.6 3.7 3.7 0 2-1.7 3.7-3.8 3.7zm-3 7.6c0 2-1.8 3.8-4 3.8-2 0-3.6-1.6-3.6-3.7 0-2 1.7-3.7 3.7-3.7 2.2 0 4 1.6 4 3.7zm-7.6 13.3c0-2 1.7-3.7 3.7-3.7 2.2 0 4 1.6 4 3.6s-1.8 3.8-4 3.8c-2 0-3.6-1.7-3.6-3.8zm0 13.3c0-2 1.7-3.8 3.7-3.8 2.2 0 4 1.7 4 3.7s-1.8 3.7-4 3.7c-2 0-3.6-1.7-3.6-3.8zm0 13.2c0-2 1.7-3.7 3.7-3.7 2.2 0 4 1.7 4 3.7s-1.8 3.8-4 3.8c-2 0-3.6-1.7-3.6-3.8zm0 13.3c0-2 1.7-3.7 3.7-3.7 2.2 0 4 1.7 4 3.7s-1.8 3.8-4 3.8c-2 0-3.6-1.7-3.6-3.8zm0 13.3c0-2 1.7-3.7 3.7-3.7 2.2 0 4 1.8 4 3.8 0 2-1.8 3.8-4 3.8-2 0-3.6-1.7-3.6-3.8zm0 13.3c0-2 1.7-3.6 3.7-3.6 2.2 0 4 1.7 4 3.7 0 2.2-1.8 4-4 4-2 0-3.6-1.8-3.6-4zm0 13.4c0-2 1.7-3.7 3.7-3.7 2.2 0 4 1.7 4 3.7s-1.8 3.8-4 3.8c-2 0-3.6-1.7-3.6-3.8zm3 12c0-2 1.6-3.7 3.6-3.7s3.8 1.6 3.8 3.7c0 2-1.7 3.7-3.8 3.7-2 0-3.7-1.5-3.7-3.6zm16-118.5c0-2 1.8-3.8 4-3.8 2 0 3.6 1.7 3.6 3.7s-1.7 3.7-3.7 3.7-3.8-1.7-3.8-3.8zm8 10.8c0-2 1.8-3.7 3.8-3.7 2 0 3.8 1.8 3.8 3.8 0 2-1.7 3.8-3.8 3.8-2 0-3.7-1.7-3.7-3.8zm1.8 12.8c0-2 1.7-3.7 3.7-3.7s3.7 1.6 3.7 3.6-1.7 3.8-3.8 3.8c-2 0-3.8-1.7-3.8-3.8zm0 12.8c0-2 1.7-3.7 3.7-3.7s3.7 1.7 3.7 3.7-1.7 3.8-3.8 3.8c-2 0-3.8-1.7-3.8-3.8zm10 68.8v-21.5h-13.7V203c0 5.4-2.6 8.6-6.5 8.6-3.5 0-6.4-3.2-6.4-8.5v-89c0-5.4 3-9 6.4-9 4 0 6.5 3.6 6.5 9v24.7h13.8v-22c0-18.4-8-31-21.2-31-12.2 0-22.2 12.6-22.2 31V200c0 18.5 10 31 22.3 31 13.4 0 21.3-12.5 21.3-31zm52.3 19.6c0 2-1.6 3.8-3.7 3.8-2 0-3.7-1.7-3.7-3.8 0-2 1.7-3.7 3.8-3.7 2 0 3.7 1.8 3.7 3.8zm0-13.7c0 2.2-1.6 4-3.7 4-2 0-3.7-1.8-3.7-4 0-2 1.7-3.6 3.8-3.6 2 0 3.7 1.7 3.7 3.7zm0-13.5c0 2-1.6 3.7-3.7 3.7-2 0-3.7-1.7-3.7-3.7s1.7-3.8 3.8-3.8c2 0 3.7 1.7 3.7 3.8zm0-13.7c0 2-1.6 3.7-3.7 3.7-2 0-3.7-1.6-3.7-3.7 0-2 1.7-3.7 3.8-3.7 2 0 3.7 1.7 3.7 3.8zm0-13.7c0 2.2-1.6 4-3.7 4-2 0-3.7-1.8-3.7-4 0-2 1.7-3.6 3.8-3.6 2 0 3.7 1.7 3.7 3.7zm0-13.5c0 2-1.6 3.7-3.7 3.7-2 0-3.7-1.7-3.7-3.7s1.7-3.8 3.8-3.8c2 0 3.7 1.7 3.7 3.8zm0-13.7c0 2-1.6 3.7-3.7 3.7-2 0-3.7-1.7-3.7-3.7s1.7-3.8 3.8-3.8c2 0 3.7 1.7 3.7 3.8zm0-13.7c0 2.2-1.6 3.8-3.7 3.8-2 0-3.7-1.6-3.7-3.7 0-2 1.7-3.6 3.8-3.6 2 0 3.7 1.6 3.7 3.7zm0-13.6c0 2-1.6 3.8-3.7 3.8-2 0-3.7-1.7-3.7-3.8 0-2 1.7-3.7 3.8-3.7 2 0 3.7 1.7 3.7 3.7zM222 96c0 2-1.8 3.6-4 3.6-2 0-3.6-1.6-3.6-3.7 0-2.2 1.7-3.8 3.7-3.8 2.2 0 4 1.6 4 3.7zm-23.4 123.8c0 2-1.6 3.8-3.7 3.8-2.2 0-3.8-1.7-3.8-3.8 0-2 1.6-3.7 3.7-3.7 2 0 3.6 1.8 3.6 3.8zm0-13.7c0 2.2-1.6 4-3.7 4-2.2 0-3.8-1.8-3.8-4 0-2 1.6-3.6 3.7-3.6 2 0 3.6 1.7 3.6 3.7zm0-13.5c0 2-1.6 3.7-3.7 3.7-2.2 0-3.8-1.7-3.8-3.7s1.6-3.8 3.7-3.8c2 0 3.6 1.7 3.6 3.8zm0-13.7c0 2-1.6 3.7-3.7 3.7-2.2 0-3.8-1.6-3.8-3.7 0-2 1.6-3.7 3.7-3.7 2 0 3.6 1.7 3.6 3.8zm0-13.7c0 2.2-1.6 4-3.7 4-2.2 0-3.8-1.8-3.8-4 0-2 1.6-3.6 3.7-3.6 2 0 3.6 1.7 3.6 3.7zm0-13.5c0 2-1.6 3.7-3.7 3.7-2.2 0-3.8-1.7-3.8-3.7s1.6-3.8 3.7-3.8c2 0 3.6 1.7 3.6 3.8zm0-13.7c0 2-1.6 3.7-3.7 3.7-2.2 0-3.8-1.7-3.8-3.7s1.6-3.8 3.7-3.8c2 0 3.6 1.7 3.6 3.8zm0-13.7c0 2.2-1.6 3.8-3.7 3.8-2.2 0-3.8-1.6-3.8-3.7 0-2 1.6-3.6 3.7-3.6 2 0 3.6 1.6 3.6 3.7zm0-13.6c0 2-1.6 3.8-3.7 3.8-2.2 0-3.8-1.7-3.8-3.8 0-2 1.6-3.7 3.7-3.7 2 0 3.6 1.7 3.6 3.7zm0-13.6c0 2-1.6 3.7-3.7 3.7-2.2 0-3.8-1.7-3.8-3.7s1.6-3.8 3.7-3.8c2 0 3.6 1.7 3.6 3.8zm0-13.7c0 2-1.6 3.8-3.7 3.8-2.2 0-3.8-1.7-3.8-3.7s1.6-3.7 3.7-3.7c2 0 3.6 1.7 3.6 3.8zm0-13.6c0 2-1.6 3.7-3.7 3.7-2.2 0-3.8-1.5-3.8-3.6 0-2 1.6-3.7 3.7-3.7 2 0 3.6 1.6 3.6 3.7zm0-13.7c0 2-1.6 3.8-3.7 3.8-2.2 0-3.8-1.7-3.8-3.8 0-2 1.6-3.7 3.7-3.7 2 0 3.6 1.7 3.6 3.7zm0-13.6c0 2-1.6 3.8-3.7 3.8-2.2 0-3.8-1.7-3.8-3.7s1.6-3.7 3.7-3.7c2 0 3.6 1.7 3.6 3.8zM232 228.8v-120c0-13.6-6-23-15.2-23-6 0-11 4.4-13.5 11.5V32.7h-16.8v196h16.8V113c0-5 2.6-8.5 6-8.5 3.7 0 6 3.5 6 8.5v115.7h16.8" fill="#3b5999"/></svg>