<?xml version="1.0" encoding="UTF-8" standalone="no"?>
<svg
   xmlns:dc="http://purl.org/dc/elements/1.1/"
   xmlns:cc="http://creativecommons.org/ns#"
   xmlns:rdf="http://www.w3.org/1999/02/22-rdf-syntax-ns#"
   xmlns:svg="http://www.w3.org/2000/svg"
   xmlns="http://www.w3.org/2000/svg"
   xmlns:sodipodi="http://sodipodi.sourceforge.net/DTD/sodipodi-0.dtd"
   xmlns:inkscape="http://www.inkscape.org/namespaces/inkscape"
   width="16"
   height="16"
   version="1.1"
   id="svg2112"
   sodipodi:docname="cornerButton2.svg"
   inkscape:version="0.92.2 (5c3e80d, 2017-08-06)">
  <metadata
     id="metadata2116">
    <rdf:RDF>
      <cc:Work
         rdf:about="">
        <dc:format>image/svg+xml</dc:format>
        <dc:type
           rdf:resource="http://purl.org/dc/dcmitype/StillImage" />
        <dc:title />
      </cc:Work>
    </rdf:RDF>
  </metadata>
  <sodipodi:namedview
     pagecolor="#ffffff"
     bordercolor="#666666"
     borderopacity="1"
     objecttolerance="10"
     gridtolerance="10"
     guidetolerance="10"
     inkscape:pageopacity="0"
     inkscape:pageshadow="2"
     inkscape:window-width="1920"
     inkscape:window-height="1017"
     id="namedview2114"
     showgrid="false"
     inkscape:zoom="59"
     inkscape:cx="6.7382835"
     inkscape:cy="6.0535635"
     inkscape:window-x="-8"
     inkscape:window-y="-8"
     inkscape:window-maximized="1"
     inkscape:current-layer="svg2112" />
  <defs
     id="defs2100">
    <filter
       id="a"
       color-interpolation-filters="sRGB">
      <feFlood
         flood-opacity=".96"
         flood-color="#000"
         result="flood"
         id="feFlood2078" />
      <feComposite
         in="flood"
         in2="SourceGraphic"
         operator="in"
         result="composite1"
         id="feComposite2080" />
      <feGaussianBlur
         in="composite1"
         stdDeviation=".3"
         result="blur"
         id="feGaussianBlur2082" />
      <feOffset
         result="offset"
         id="feOffset2084" />
      <feComposite
         in="SourceGraphic"
         in2="offset"
         result="composite2"
         id="feComposite2086" />
    </filter>
    <filter
       id="b"
       color-interpolation-filters="sRGB">
      <feFlood
         flood-opacity=".96"
         flood-color="#000"
         result="flood"
         id="feFlood2089" />
      <feComposite
         in="flood"
         in2="SourceGraphic"
         operator="in"
         result="composite1"
         id="feComposite2091" />
      <feGaussianBlur
         in="composite1"
         stdDeviation=".3"
         result="blur"
         id="feGaussianBlur2093" />
      <feOffset
         result="offset"
         id="feOffset2095" />
      <feComposite
         in="SourceGraphic"
         in2="offset"
         result="composite2"
         id="feComposite2097" />
    </filter>
  </defs>
  <path
     d="M16 0L0 16h16z"
     fill="#e5e5e5"
     id="path2102"
     style="fill:#fdfdfd;fill-opacity:1" />
  <ellipse
     style="fill:none;stroke:#2f58c6;stroke-width:0.72000003;stroke-opacity:1;filter:url(#a)"
     id="ellipse2104"
     transform="matrix(0.92712,0,0,0.92712,0.73,0.73)"
     ry="4.1599998"
     rx="4.1500001"
     cy="11.48"
     cx="11.49" />
  <g
     id="g2108"
     style="line-height:1.25;stroke:none;stroke-opacity:1;fill-opacity:1;fill:#2f58c6">
    <path
       inkscape:connector-curvature="0"
       id="path2106"
       word-spacing="0"
       letter-spacing="0"
       font-size="7.74"
       font-weight="400"
       transform="matrix(0.97235,0,0,0.92508,0.56,0.7)"
       aria-label="?"
       style="font-weight:400;font-size:7.73999977px;font-family:Lato;-inkscape-font-specification:Lato;letter-spacing:0;word-spacing:0;fill:#2f58c6;stroke:none;stroke-width:0.19;stroke-opacity:1;filter:url(#b);fill-opacity:1"
       d="M 9.64,9.24 9.92,9.02 q 0.16,-0.1 0.34,-0.18 0.19,-0.08 0.4,-0.12 0.21,-0.05 0.46,-0.05 0.34,0 0.61,0.1 0.28,0.09 0.48,0.26 0.2,0.17 0.3,0.42 0.11,0.24 0.11,0.54 0,0.3 -0.08,0.52 -0.09,0.2 -0.22,0.37 -0.13,0.16 -0.28,0.27 l -0.28,0.22 q -0.14,0.1 -0.24,0.2 -0.1,0.1 -0.12,0.22 l -0.09,0.57 H 10.66 L 10.59,11.73 V 11.7 11.66 q 0,-0.17 0.08,-0.3 0.09,-0.12 0.22,-0.23 l 0.27,-0.21 q 0.15,-0.1 0.28,-0.23 0.13,-0.12 0.21,-0.28 0.09,-0.15 0.09,-0.36 0,-0.14 -0.06,-0.25 Q 11.63,9.69 11.54,9.61 11.44,9.53 11.31,9.49 11.19,9.44 11.04,9.44 10.81,9.44 10.66,9.49 10.51,9.54 10.4,9.6 l -0.18,0.11 q -0.07,0.05 -0.13,0.05 -0.14,0 -0.2,-0.12 z m 0.73,4.57 q 0,-0.12 0.04,-0.23 0.05,-0.1 0.13,-0.19 0.08,-0.07 0.19,-0.12 0.1,-0.05 0.23,-0.05 0.12,0 0.23,0.05 0.1,0.05 0.18,0.12 0.08,0.08 0.13,0.19 0.04,0.1 0.04,0.23 0,0.12 -0.04,0.23 -0.05,0.1 -0.13,0.18 -0.08,0.08 -0.18,0.12 -0.11,0.05 -0.23,0.05 -0.13,0 -0.23,-0.05 -0.11,-0.04 -0.2,-0.12 -0.07,-0.07 -0.12,-0.18 -0.04,-0.1 -0.04,-0.23 z" />
  </g>
</svg>
