<svg xmlns="http://www.w3.org/2000/svg" width="16" height="16"><defs><filter id="a" color-interpolation-filters="sRGB"><feFlood flood-opacity=".96" flood-color="#000" result="flood"/><feComposite in="flood" in2="SourceGraphic" operator="in" result="composite1"/><feGaussianBlur in="composite1" stdDeviation=".3" result="blur"/><feOffset result="offset"/><feComposite in="SourceGraphic" in2="offset" result="composite2"/></filter><filter id="b" color-interpolation-filters="sRGB"><feFlood flood-opacity=".96" flood-color="#000" result="flood"/><feComposite in="flood" in2="SourceGraphic" operator="in" result="composite1"/><feGaussianBlur in="composite1" stdDeviation=".3" result="blur"/><feOffset result="offset"/><feComposite in="SourceGraphic" in2="offset" result="composite2"/></filter></defs><path d="M16 0L0 16h16z" fill="#e5e5e5"/><g opacity=".98"><ellipse cx="11.49" cy="11.48" rx="4.15" ry="4.16" transform="matrix(.92712 0 0 .92712 .73 .73)" fill="none" stroke="#fff" stroke-width=".72" filter="url(#a)"/><g style="line-height:1.25"><path d="M9.64 9.24l.28-.22q.16-.1.34-.18.19-.08.4-.12.21-.05.46-.05.34 0 .61.1.28.09.48.26.2.17.3.42.11.24.11.54 0 .3-.08.52-.09.2-.22.37-.13.16-.28.27l-.28.22q-.14.1-.24.2-.1.1-.12.22l-.09.57h-.65l-.07-.63v-.03-.04q0-.17.08-.3.09-.12.22-.23l.27-.21q.15-.1.28-.23.13-.12.21-.28.09-.15.09-.36 0-.14-.06-.25-.05-.11-.14-.19-.1-.08-.23-.12-.12-.05-.27-.05-.23 0-.38.05t-.26.11l-.18.11q-.07.05-.13.05-.14 0-.2-.12zm.73 4.57q0-.12.04-.23.05-.1.13-.19.08-.07.19-.12.1-.05.23-.05.12 0 .23.05.1.05.18.12.08.08.13.19.04.1.04.23 0 .12-.04.23-.05.1-.13.18-.08.08-.18.12-.11.05-.23.05-.13 0-.23-.05-.11-.04-.2-.12-.07-.07-.12-.18-.04-.1-.04-.23z" style="-inkscape-font-specification:Lato" font-family="Lato" aria-label="?" transform="matrix(.97235 0 0 .92508 .56 .7)" font-weight="400" font-size="7.74" letter-spacing="0" word-spacing="0" fill="#fff" stroke-width=".19" filter="url(#b)"/></g></g></svg>